# xmcd
#
# Track frame offsets:
#	150
#	18114
#	32180
#	52490
#	71467
#	92941
#	113742
#	130048
#	149353
#	171394
#	191853
#	213155
#
# Disc length: 3107 seconds
# Revision: 0
# Processed by: cddbd v1.5.2PL0 Copyright (c) Steve Scherf et al.
# Submitted via: dBpowerAMP V12.0
#
DISCID=b30c210c
DTITLE=Classic Petra - Back To The Rock
DYEAR=2010
DGENRE=Gospel
TTITLE0=Bema Seat
TTITLE1=Clean
TTITLE2=Angel Of Light
TTITLE3=Rose Colored Stained Glass Windows
TTITLE4=Godpleaser
TTITLE5=Second Wind
TTITLE6=More Power To Ya
TTITLE7=Let Everything That Hath Breath
TTITLE8=Grave Robber
TTITLE9=Adonai
TTITLE10=Back To The Rock
TTITLE11=Too Big To Fail
EXTD=
EXTT0=
EXTT1=
EXTT2=
EXTT3=
EXTT4=
EXTT5=
EXTT6=
EXTT7=
EXTT8=
EXTT9=
EXTT10=
EXTT11=
PLAYORDER=
